<?xml version="1.0" encoding="utf-8"?>
<!-- Generator: Adobe Illustrator 25.2.1, SVG Export Plug-In . SVG Version: 6.00 Build 0)  -->
<svg version="1.1" id="Layer_3" xmlns="http://www.w3.org/2000/svg" xmlns:xlink="http://www.w3.org/1999/xlink" x="0px" y="0px"
	 viewBox="0 0 100 100" style="enable-background:new 0 0 100 100;" xml:space="preserve">
<style type="text/css">
	.st0{fill:#C4AF47;}
	.st1{fill:#EDD64A;}
</style>
<path class="st0" d="M56.1,57.8l-4.9,8.5l-3.1,5.4C41.3,71.4,35,69.1,30,65.3l2.1-3.7l7.6-13.3l8.9,5.1L56.1,57.8z"/>
<path class="st1" d="M48.1,71.7l-0.6,1.1L33.7,96.5l-16.4-9.5L30,65.3C35,69.1,41.3,71.4,48.1,71.7z"/>
<polygon class="st1" points="83.6,84.9 68.6,96.5 49.4,71.7 45,66.1 41.2,61.2 56.1,49.6 65.5,61.7 68.4,65.4 "/>
<path class="st0" d="M68.4,65.4c-5.3,3.9-11.9,6.3-19,6.3L45,66.1l-3.8-4.9l14.9-11.6l9.4,12.1L68.4,65.4z"/>
<circle class="st1" cx="48.7" cy="36.9" r="32.2"/>
<g>
	<path class="st0" d="M30.6,45.6c0,0-2.1,0.7-4.1,0c-2-0.8-3.1-2.7-3.1-2.7s2.1-0.7,4.1,0S30.6,45.6,30.6,45.6z"/>
	<path class="st0" d="M34.7,52.2c0,0-1.2-1.9-0.9-4c0.3-2.1,2-3.6,2-3.6s1.2,1.9,0.9,4S34.7,52.2,34.7,52.2z"/>
	<path class="st0" d="M32.5,50.2c0,0-2.1,0.9-4.1,0.3c-2-0.6-3.3-2.5-3.3-2.5s2.1-0.9,4.1-0.3S32.5,50.2,32.5,50.2z"/>
	<path class="st0" d="M28.9,38c0,0-0.3-2.2,0.9-4c1.2-1.8,3.3-2.4,3.3-2.4s0.3,2.2-0.9,4C31.1,37.4,28.9,38,28.9,38z"/>
	<path class="st0" d="M35.8,54.7c0,0-1.9,1.1-4,0.8s-3.5-2.1-3.5-2.1s1.9-1.1,4-0.8C34.4,52.9,35.8,54.7,35.8,54.7z"/>
	<path class="st0" d="M41.9,61.8c0,0-1.6-1.6-1.7-3.7c-0.1-2.1,1.2-3.9,1.2-3.9s1.6,1.6,1.7,3.7C43.2,60,41.9,61.8,41.9,61.8z"/>
	<path class="st0" d="M39.8,58.2c0,0-1.7,1.5-3.8,1.5c-2.1,0-3.9-1.4-3.9-1.4s1.7-1.5,3.8-1.5C38,56.8,39.8,58.2,39.8,58.2z"/>
	<path class="st0" d="M37.4,56.4c0,0-1.3-1.8-1.1-4c0.2-2.1,1.8-3.7,1.8-3.7s1.3,1.8,1.1,4C39,54.9,37.4,56.4,37.4,56.4z"/>
	<path class="st0" d="M28.3,36.6c0,0-2.3,0.2-4-1.1c-1.7-1.2-2.2-3.4-2.2-3.4s2.3-0.2,4,1.1C27.7,34.4,28.3,36.6,28.3,36.6z"/>
	<path class="st0" d="M29.9,42.5c0,0-0.3-2.2,0.9-4c1.2-1.8,3.3-2.4,3.3-2.4s0.3,2.2-0.9,4S29.9,42.5,29.9,42.5z"/>
	<path class="st0" d="M29.2,41.1c0,0-2.2,0.5-4.1-0.5c-1.9-1-2.7-3.1-2.7-3.1s2.2-0.5,4.1,0.5C28.4,39,29.2,41.1,29.2,41.1z"/>
	<path class="st0" d="M31.7,47.2c0,0-0.8-2.1-0.1-4.1c0.7-2,2.7-3.1,2.7-3.1s0.8,2.1,0.1,4.1C33.7,46,31.7,47.2,31.7,47.2z"/>
</g>
<g>
	<path class="st0" d="M67,45.5c0,0,2.1,0.7,4.1,0c2-0.8,3.1-2.7,3.1-2.7s-2.1-0.7-4.1,0S67,45.5,67,45.5z"/>
	<path class="st0" d="M62.9,52c0,0,1.2-1.9,0.9-4c-0.3-2.1-2-3.6-2-3.6s-1.2,1.9-0.9,4C61.2,50.5,62.9,52,62.9,52z"/>
	<path class="st0" d="M65.1,50c0,0,2.1,0.9,4.1,0.3s3.3-2.5,3.3-2.5s-2.1-0.9-4.1-0.3S65.1,50,65.1,50z"/>
	<path class="st0" d="M68.7,37.9c0,0,0.3-2.2-0.9-4c-1.2-1.8-3.3-2.4-3.3-2.4s-0.3,2.2,0.9,4S68.7,37.9,68.7,37.9z"/>
	<path class="st0" d="M61.8,54.5c0,0,1.9,1.1,4,0.8c2.1-0.4,3.5-2.1,3.5-2.1s-1.9-1.1-4-0.8S61.8,54.5,61.8,54.5z"/>
	<path class="st0" d="M55.8,61.6c0,0,1.6-1.6,1.7-3.7S56.2,54,56.2,54s-1.6,1.6-1.7,3.7C54.4,59.8,55.8,61.6,55.8,61.6z"/>
	<path class="st0" d="M57.8,58.1c0,0,1.7,1.5,3.8,1.5c2.1,0,3.9-1.4,3.9-1.4s-1.7-1.5-3.8-1.5C59.6,56.6,57.8,58.1,57.8,58.1z"/>
	<path class="st0" d="M60.2,56.3c0,0,1.3-1.8,1.1-4c-0.2-2.1-1.8-3.7-1.8-3.7s-1.3,1.8-1.1,4C58.6,54.7,60.2,56.3,60.2,56.3z"/>
	<path class="st0" d="M69.4,36.5c0,0,2.3,0.2,4-1.1c1.7-1.2,2.2-3.4,2.2-3.4s-2.3-0.2-4,1.1C69.9,34.3,69.4,36.5,69.4,36.5z"/>
	<path class="st0" d="M67.7,42.3c0,0,0.3-2.2-0.9-4c-1.2-1.8-3.3-2.4-3.3-2.4s-0.3,2.2,0.9,4C65.5,41.7,67.7,42.3,67.7,42.3z"/>
	<path class="st0" d="M68.4,41c0,0,2.2,0.5,4.1-0.5c1.9-1,2.7-3.1,2.7-3.1s-2.2-0.5-4.1,0.5S68.4,41,68.4,41z"/>
	<path class="st0" d="M65.9,47c0,0,0.8-2.1,0.1-4.1c-0.7-2-2.7-3.1-2.7-3.1s-0.8,2.1-0.1,4.1C63.9,45.9,65.9,47,65.9,47z"/>
</g>
<g>
	<path class="st0" d="M48.7,67.4c-17,0-30.9-13.7-30.9-30.5c0-16.8,13.9-30.5,30.9-30.5c17,0,30.9,13.7,30.9,30.5
		C79.6,53.7,65.8,67.4,48.7,67.4z M48.7,7.5C32.3,7.5,19,20.7,19,36.9c0,16.2,13.3,29.4,29.8,29.4s29.8-13.2,29.8-29.4
		C78.5,20.7,65.2,7.5,48.7,7.5z"/>
</g>
<g>
	<path class="st0" d="M47.4,24.2c-1.2,2.1-6.1,5.1-6.4-0.1c2.4-1.1,7.6-6.3,10.4-5.5c0,0,0,27.7,0,27.7h-4.3L47.4,24.2z"/>
</g>
</svg>
